<svg id="Calque_1" height="20" data-name="Calque 1" xmlns="http://www.w3.org/2000/svg" viewBox="0 0 257.97 50.6"><defs><style>.cls-1{fill:#17c9ff;}</style></defs><title>emma</title><path class="cls-1" d="M74.74,156.67c0-15.64,11.22-25.3,22.82-25.3,14.07,0,20.73,10.43,20.73,23.37a34.68,34.68,0,0,1-.67,7H90.52c1.53,5.79,5.71,7.72,11,7.72a19.27,19.27,0,0,0,9.69-2.89l5.33,9.84A31.63,31.63,0,0,1,99.27,182C85.39,182,74.74,172.71,74.74,156.67Zm29.67-5.79c0-3.67-1.53-6.95-6.47-6.95-3.61,0-6.65,2.12-7.61,6.95Z" transform="translate(-74.74 -131.37)"/><path class="cls-1" d="M127.26,132.53h13.3l1.15,5.89h.37c3.81-3.76,7.8-7,14.27-7s10.55,2.71,13.12,7.73c3.9-4.06,8.18-7.73,14.64-7.73,10.46,0,15,7.73,15,19.71v29.74H182.78V153.2c0-6.18-1.52-7.73-4.75-7.73-1.9,0-4.19,1.16-6.66,3.67v31.68H155V153.2c0-6.18-1.52-7.73-4.76-7.73-1.9,0-4.18,1.16-6.65,3.67v31.68H127.26Z" transform="translate(-74.74 -131.37)"/><path class="cls-1" d="M209.83,132.53h13.3l1.15,5.89h.38c3.8-3.76,7.79-7,14.26-7s10.55,2.71,13.12,7.73c3.9-4.06,8.18-7.73,14.64-7.73,10.46,0,15,7.73,15,19.71v29.74H265.35V153.2c0-6.18-1.52-7.73-4.75-7.73-1.9,0-4.19,1.16-6.66,3.67v31.68H237.59V153.2c0-6.18-1.52-7.73-4.75-7.73-1.91,0-4.19,1.16-6.66,3.67v31.68H209.83Z" transform="translate(-74.74 -131.37)"/><path class="cls-1" d="M290.5,167.1c0-10,7.6-15.64,25.86-17.57-.38-3.48-2.47-5-6.66-5-3.42,0-7,1.35-12,4.05L292,137.75c6.66-4.06,13.5-6.38,20.92-6.38,12.36,0,19.77,6.76,19.77,22.6v26.85H319.4l-1.14-4.64h-.38c-3.8,3.48-8,5.8-13.12,5.8C295.82,182,290.5,175,290.5,167.1Zm25.86-1.16v-6.56c-7.8,1.16-10.27,3.67-10.27,6.37,0,2.22,1.52,3.48,4.38,3.48C313.13,169.23,314.65,167.88,316.36,165.94Z" transform="translate(-74.74 -131.37)"/></svg>